<svg version="1.1" xmlns="http://www.w3.org/2000/svg" xmlns:xlink="http://www.w3.org/1999/xlink" preserveAspectRatio="xMidYMid slice" viewBox="0 0 777 518">
  <defs>
    <mask id="pathMask" maskUnits="userSpaceOnUse">
      <path id="motionPath" d="M315.52,497.82 L286.52,451.82 L344.02,434.32 L315.52,385.82 L379.02,372.32 C382.86,344.98 385.36,327.98 386.52,321.32 C387.69,314.67 387.87,329.21 408.66,342.15 C415.99,346.71 431.06,346.11 439.24,349.32 C442.74,350.69 460.67,365.55 461.02,369.82 C461.34,373.65 486.44,354.33 489.13,353.76 C500.42,351.39 482.92,317.22 483.28,318.32 C483.34,318.48 483.97,311.47 485.18,297.3 C486.09,286.62 484.96,275.86 481.85,265.6 C480.64,261.6 482.79,268.71 481.85,265.6 C477.88,252.5 477.49,238.57 480.73,225.27 C481.54,221.96 479.78,229.2 480.78,225.1 C483.34,214.55 481.95,203.43 476.85,193.84 C471.98,184.69 468.95,177.08 467.75,171.04 C464.08,152.52 471.5,141.94 471.02,142.32 C467.61,144.98 476.77,135.98 498.52,115.32"
        fill="none" stroke="#FFFFFF">
      </path>
    </mask>
    <g>
      <path id="climbPath" d="M315.52,497.82 L286.52,451.82 L344.02,434.32 L315.52,385.82 L379.02,372.32 C382.86,344.98 385.36,327.98 386.52,321.32 C387.69,314.67 387.87,329.21 408.66,342.15 C415.99,346.71 431.06,346.11 439.24,349.32 C442.74,350.69 460.67,365.55 461.02,369.82 C461.34,373.65 486.44,354.33 489.13,353.76 C500.42,351.39 482.92,317.22 483.28,318.32 C483.34,318.48 483.97,311.47 485.18,297.3 C486.09,286.62 484.96,275.86 481.85,265.6 C480.64,261.6 482.79,268.71 481.85,265.6 C477.88,252.5 477.49,238.57 480.73,225.27 C481.54,221.96 479.78,229.2 480.78,225.1 C483.34,214.55 481.95,203.43 476.85,193.84 C471.98,184.69 468.95,177.08 467.75,171.04 C464.08,152.52 471.5,141.94 471.02,142.32 C467.61,144.98 476.77,135.98 498.52,115.32"
        stroke-dasharray="20 15">
      </path>
    </g>
  </defs>

  <g id="pathMaskReveal" mask="url(#pathMask)">
    <use xlink:href="#climbPath" class="outer" opacity="1" fill-opacity="0" stroke="#FFFFFF" stroke-width="4" stroke-opacity="1"></use>
    <use xlink:href="#climbPath" class="inner" opacity="1" fill-opacity="0" stroke="#000000" stroke-width="2" stroke-opacity="1"></use>
  </g>

  <g id="ring">
    <circle cx="500" cy="156" r="40" stroke="#000000" stroke-width="3" fill="none"/>
    <circle cx="500" cy="156" r="37" stroke="#f5ca58" stroke-width="4" fill="none"/>
    <circle cx="500" cy="156" r="35" stroke="#000000" stroke-width="3" fill="none"/>
    <path fill="#51c8ad" stroke="#000000" stroke-width="3" id="heart" d="M517.43 93.22C524.15 93.22 528.59 101.18 528.59 107.59C528.59 125.36 500.26 140.67 500.26 141.16C500.26 141.16 500.26 141.16 500.26 141.16C500.26 140.67 471.68 125.36 471.68 107.59C471.68 101.18 476.88 93.22 483.6 93.22C490.32 93.22 500.26 100.53 500.26 106.95C500.26 100.53 510.71 93.22 517.43 93.22Z"></path>
  </g>

</svg>