<svg version="1.1" xmlns="http://www.w3.org/2000/svg" xmlns:xlink="http://www.w3.org/1999/xlink" preserveAspectRatio="xMidYMid slice" viewBox="0 0 777 518">
  <defs>
    <mask id="pathMask" maskUnits="userSpaceOnUse">
      <path id="motionPath" d="M315.52,497.82 L286.52,451.82 L344.02,434.32 L315.52,385.82 L379.02,372.32 C382.86,344.98 385.36,327.98 386.52,321.32 C387.69,314.67 387.87,329.21 408.66,342.15 C415.99,346.71 431.06,346.11 439.24,349.32 C442.74,350.69 460.67,365.55 461.02,369.82 C461.34,373.65 486.44,354.33 489.13,353.76 C500.42,351.39 482.92,317.22 483.28,318.32 C483.34,318.48 483.97,311.47 485.18,297.3 C486.09,286.62 484.96,275.86 481.85,265.6 C480.64,261.6 482.79,268.71 481.85,265.6 C477.88,252.5 477.49,238.57 480.73,225.27 C481.54,221.96 479.78,229.2 480.78,225.1 C483.34,214.55 481.95,203.43 476.85,193.84 C471.98,184.69 468.95,177.08 467.75,171.04 C464.08,152.52 471.5,141.94 471.02,142.32 C467.61,144.98 476.77,135.98 498.52,115.32"
        fill="none" stroke="#FFFFFF">
      </path>
    </mask>
    <g>
      <path id="climbPath" d="M315.52,497.82 L286.52,451.82 L344.02,434.32 L315.52,385.82 L379.02,372.32 C382.86,344.98 385.36,327.98 386.52,321.32 C387.69,314.67 387.87,329.21 408.66,342.15 C415.99,346.71 431.06,346.11 439.24,349.32 C442.74,350.69 460.67,365.55 461.02,369.82 C461.34,373.65 486.44,354.33 489.13,353.76 C500.42,351.39 482.92,317.22 483.28,318.32 C483.34,318.48 483.97,311.47 485.18,297.3 C486.09,286.62 484.96,275.86 481.85,265.6 C480.64,261.6 482.79,268.71 481.85,265.6 C477.88,252.5 477.49,238.57 480.73,225.27 C481.54,221.96 479.78,229.2 480.78,225.1 C483.34,214.55 481.95,203.43 476.85,193.84 C471.98,184.69 468.95,177.08 467.75,171.04 C464.08,152.52 471.5,141.94 471.02,142.32 C467.61,144.98 476.77,135.98 498.52,115.32"
        stroke-dasharray="20 15">
      </path>
    </g>
  </defs>

  <g id="pathMaskReveal" mask="url(#pathMask)">
    <use xlink:href="#climbPath" class="outer" opacity="1" fill-opacity="0" stroke="#FFFFFF" stroke-width="4" stroke-opacity="1"></use>
    <use xlink:href="#climbPath" class="inner" opacity="1" fill-opacity="0" stroke="#000000" stroke-width="2" stroke-opacity="1"></use>
  </g>

  <g>
    <path id="heart" d="M517.43 93.22C524.15 93.22 528.59 101.18 528.59 107.59C528.59 125.36 500.26 140.67 500.26 141.16C500.26 141.16 500.26 141.16 500.26 141.16C500.26 140.67 471.68 125.36 471.68 107.59C471.68 101.18 476.88 93.22 483.6 93.22C490.32 93.22 500.26 100.53 500.26 106.95C500.26 100.53 510.71 93.22 517.43 93.22Z"></path>
    <!-- <use xlink:href="#heart" class="heart" opacity="1" fill="#FFFFFF" fill-opacity="1"></use> -->
  </g>

  <g id="ring">
    <path d="M512.72 110.48C512.72 110.41 512.72 109.91 512.72 109.85C512.72 106.07 509.74 103 506.06 103C502.38 103 499.39 106.07 499.39 109.85C499.39 109.9 499.39 110.32 499.39 110.37C499.39 110.75 499.09 111.06 498.73 111.06C498.36 111.06 498.06 110.75 498.06 110.37C498.06 110.32 498.06 109.9 498.06 109.85C498.06 105.31 501.65 101.62 506.06 101.62C510.47 101.62 514.06 105.31 514.06 109.85C514.06 109.91 514.06 110.41 514.06 110.48C514.06 110.85 513.76 111.16 513.39 111.16C513.02 111.16 512.72 110.85 512.72 110.48Z" id="a27YfVTbZw"></path>
    <path d="M505.55 102.26C505.05 101.67 501.02 96.98 500.52 96.39C500.32 96.17 500.3 95.84 500.44 95.58C500.57 95.36 501.63 93.57 501.76 93.35C501.88 93.14 502.09 93.02 502.33 93.02C503.08 93.02 509.04 93.02 509.78 93.02C510.02 93.02 510.23 93.14 510.36 93.35C510.49 93.57 511.54 95.36 511.67 95.58C511.82 95.84 511.79 96.17 511.6 96.39C511.09 96.98 507.07 101.67 506.57 102.26C506.43 102.41 506.25 102.49 506.07 102.49C506.06 102.49 506.06 102.49 506.05 102.49C505.87 102.49 505.69 102.42 505.55 102.26ZM506.06 100.78L510.28 95.86L509.41 94.39L502.71 94.39L501.84 95.86L506.06 100.78Z" id="bwLP0ybYi"></path>
    <path d="M480.37 143.78C479.96 143.76 479.59 143.54 479.35 143.18C478.61 142.05 472.65 132.98 471.91 131.85C471.54 131.29 471.62 130.53 472.11 130.07C473.06 129.17 480.67 121.98 481.62 121.08C481.67 121.03 481.72 120.99 481.78 120.95C486.91 117.39 492.84 119.25 493.09 119.33C495.52 119.99 500.31 120.15 500.36 120.15C501.18 120.15 507.73 120.15 508.55 120.15C510.73 120.15 512.64 121.27 513.63 122.93C514.95 122.29 525.57 117.11 526.89 116.47C529.63 114.96 532.87 115.75 534.21 118.31C535.57 120.92 534.44 124.27 531.69 125.79C529.44 127.03 511.46 136.94 509.21 138.18C509.11 138.23 509.01 138.27 508.9 138.3C508.78 138.33 507.83 138.58 507.71 138.61C507.62 138.64 507.52 138.64 507.43 138.65C505.35 138.71 488.74 139.17 486.66 139.23C486.13 139.43 483.99 140.39 481.48 143.32C481.21 143.61 480.84 143.78 480.46 143.78C480.43 143.78 480.4 143.78 480.37 143.78ZM480.63 140.23C483.58 137.28 485.93 136.57 486.05 136.54C486.15 136.52 486.26 136.5 486.37 136.5C487.76 136.46 494.7 136.27 507.19 135.92L508.08 135.69C521.48 128.31 528.93 124.21 530.42 123.39C531.87 122.58 532.51 120.9 531.84 119.62C531.22 118.42 529.56 118.11 528.09 118.93C526.71 119.6 515.71 124.96 514.33 125.64C514.27 128.55 511.7 130.9 508.54 130.9C507.4 130.9 498.29 130.9 497.15 130.9C496.42 130.9 495.82 130.28 495.82 129.53C495.82 128.78 496.42 128.16 497.15 128.16C498.29 128.16 507.4 128.16 508.54 128.16C510.24 128.16 511.66 126.96 511.66 125.53C511.66 125.4 511.65 125.28 511.63 125.16C511.62 125.11 511.61 125.07 511.6 125.03C511.32 123.84 510.03 122.91 508.54 122.91C507.72 122.91 501.13 122.91 500.31 122.91C500.06 122.9 495.13 122.73 492.34 121.97C492.24 121.94 487.37 120.45 483.35 123.17C482.78 123.72 479.91 126.42 474.76 131.29C478.28 136.66 480.24 139.64 480.63 140.23Z" id="d1vAWi70g"></path><path d="M507.2 121.6C507.16 120.85 507.73 120.2 508.46 120.16C508.51 120.16 513.56 119.87 515.86 119.7C516.88 119.62 516.92 117.46 516.92 117.44C516.92 117.07 516.92 115.24 516.92 111.95L494.45 111.95C494.45 114.53 494.45 115.97 494.45 116.26C494.45 116.29 494.45 116.32 494.45 116.35C494.39 117.28 494.57 119.35 495.51 119.86C496.16 120.21 496.41 121.03 496.07 121.71C495.72 122.38 494.92 122.64 494.26 122.28C491.63 120.86 491.74 116.88 491.78 116.21C491.78 115.93 491.78 114.51 491.78 111.96C487.62 111.96 485.3 111.96 484.84 111.96C481.32 111.96 478.45 109.02 478.45 105.4C478.45 103.85 478.45 91.48 478.45 89.93C478.45 86.31 481.32 83.37 484.84 83.37C485.67 83.37 492.29 83.37 493.12 83.37C493.85 83.37 494.45 83.98 494.45 84.74C494.45 86.37 494.45 94.52 494.45 109.21C508.74 109.21 516.67 109.21 518.26 109.21C519 109.21 519.6 109.82 519.6 110.58C519.6 111.26 519.6 116.74 519.6 117.42C519.62 119.05 518.9 122.22 516.05 122.43C513.73 122.6 508.66 122.89 508.61 122.89C508.59 122.89 508.56 122.9 508.53 122.9C507.83 122.9 507.24 122.33 507.2 121.6ZM481.12 89.93C481.12 91.48 481.12 103.84 481.12 105.39C481.12 107.49 482.78 109.21 484.84 109.21C485.3 109.21 487.62 109.21 491.78 109.21L491.78 86.11L484.84 86.11C482.36 87.25 481.12 88.53 481.12 89.93Z" id="a3ca9PGt8U"></path><path d="M505.44 101.2C505.16 100.48 502.89 94.68 502.6 93.96C502.46 93.61 502.63 93.21 502.97 93.07C503.31 92.93 503.7 93.09 503.84 93.44C503.98 93.82 504.72 95.69 506.03 99.05C507.27 95.7 507.95 93.83 508.09 93.46C508.22 93.1 508.6 92.92 508.95 93.06C509.3 93.2 509.47 93.59 509.34 93.94C509.07 94.67 506.94 100.46 506.67 101.19C506.57 101.45 506.33 101.62 506.06 101.63C506.07 101.63 506.06 101.63 506.06 101.63C505.79 101.63 505.54 101.46 505.44 101.2Z" id="c44QmcFoZc"></path>
    <path d="M505.39 99.94C505.38 99.32 505.31 94.34 505.31 93.71C505.3 93.33 505.59 93.02 505.97 93.02C506.33 93.02 506.64 93.31 506.64 93.7C506.65 94.32 506.72 99.31 506.73 99.93C506.73 100.31 506.44 100.62 506.07 100.62C506.07 100.62 506.06 100.62 506.06 100.62C505.69 100.62 505.4 100.32 505.39 99.94Z" id="acmpFYuM9"></path>
  </g>

</svg>